<svg xmlns="http://www.w3.org/2000/svg" viewBox="0 0 512 512" role="img" aria-label="Josh FM logo">
<defs><linearGradient id="bg" x1="0" y1="0" x2="1" y2="1"><stop stop-color="#11182b"/><stop offset=".5" stop-color="#080b12"/><stop offset="1" stop-color="#03050a"/></linearGradient><linearGradient id="blue" x1="0" y1="0" x2="1" y2="1"><stop stop-color="#69a2ff"/><stop offset=".48" stop-color="#326bff"/><stop offset="1" stop-color="#1746d1"/></linearGradient><filter id="glow"><feGaussianBlur stdDeviation="8" result="b"/><feMerge><feMergeNode in="b"/><feMergeNode in="SourceGraphic"/></feMerge></filter></defs>
<rect x="10" y="10" width="492" height="492" rx="112" fill="url(#bg)" stroke="#1d2a4d" stroke-width="5"/>
<circle cx="256" cy="256" r="166" fill="none" stroke="#15244a" stroke-width="2"/>
<path d="M102 230c31-77 84-116 154-116s123 39 154 116" fill="none" stroke="url(#blue)" stroke-width="12" stroke-linecap="round" opacity=".95" filter="url(#glow)"/>
<path d="M128 238c26-55 68-83 128-83s102 28 128 83" fill="none" stroke="#326bff" stroke-width="5" stroke-linecap="round" opacity=".45"/>
<path d="M224 148h64v121c0 59-32 92-88 92-28 0-52-8-71-25l31-43c12 10 24 15 38 15 18 0 26-11 26-34z" fill="#f7f9ff"/>
<path d="M302 287h77v25h-48v20h43v24h-43v51h-29zM392 287h31l24 66 24-66h31v120h-28v-72l-18 53h-19l-18-53v72h-27z" fill="url(#blue)"/>
<circle cx="150" cy="407" r="7" fill="#326bff" filter="url(#glow)"/><text x="171" y="414" font-family="Arial,Helvetica,sans-serif" font-size="20" font-weight="700" letter-spacing="5" fill="#aab7d6">ON AIR</text>
</svg>